<?xml version="1.0" encoding="UTF-8"?>
<!DOCTYPE svg PUBLIC "-//W3C//DTD SVG 1.1//EN" "http://www.w3.org/Graphics/SVG/1.1/DTD/svg11.dtd">
<!-- Creator: CorelDRAW X8 -->
<svg xmlns="http://www.w3.org/2000/svg" xml:space="preserve" width="42.33mm" height="42.33mm" version="1.1" style="shape-rendering:geometricPrecision; text-rendering:geometricPrecision; image-rendering:optimizeQuality; fill-rule:evenodd; clip-rule:evenodd"
viewBox="0 0 4233 4233"
 xmlns:xlink="http://www.w3.org/1999/xlink">
 <defs>
  <style type="text/css">
   <![CDATA[
    .fil1 {fill:#D9D9D9}
    .fil2 {fill:white}
    .fil0 {fill:url(#id0)}
   ]]>
  </style>
  <linearGradient id="id0" gradientUnits="userSpaceOnUse" x1="1108.91" y1="1081.15" x2="3246.36" y2="3114.05">
   <stop offset="0" style="stop-opacity:1; stop-color:#6AB348"/>
   <stop offset="1" style="stop-opacity:1; stop-color:#009933"/>
  </linearGradient>
 </defs>
 <g id="Capa_x0020_1">
  <metadata id="CorelCorpID_0Corel-Layer"/>
  <g id="_2387169017248">
   <polygon class="fil0" points="0,1 4233,1 4233,4233 0,4233 "/>
   <g>
    <path class="fil1" d="M2146 690l693 693c404,404 404,1064 0,1468l-722 722 -460 -460 722 -722c151,-151 151,-397 0,-548l-708 -709c87,-79 371,-347 475,-444z"/>
    <path class="fil2" d="M2579 1120l-727 728c-151,150 -151,396 0,546l722 722 -457 457 -773 -772c-353,-406 -337,-1027 49,-1412l727 -728 459 459z"/>
   </g>
  </g>
 </g>
</svg>
